<svg width="16" height="17" viewBox="0 0 16 17" fill="none" xmlns="http://www.w3.org/2000/svg">
<g id="Layer 2">
<g id="trash">
<path id="Vector" d="M14 4.50011H10.6667V3.38677C10.6511 2.95998 10.4668 2.55681 10.1544 2.26563C9.842 1.97446 9.42687 1.81903 9.00004 1.83344H7.00004C6.57321 1.81903 6.15808 1.97446 5.84566 2.26563C5.53324 2.55681 5.34901 2.95998 5.33337 3.38677V4.50011H2.00004C1.82323 4.50011 1.65366 4.57034 1.52864 4.69537C1.40361 4.82039 1.33337 4.98996 1.33337 5.16677C1.33337 5.34358 1.40361 5.51315 1.52864 5.63818C1.65366 5.7632 1.82323 5.83344 2.00004 5.83344H2.66671V13.1668C2.66671 13.6972 2.87742 14.2059 3.25249 14.581C3.62757 14.9561 4.13627 15.1668 4.66671 15.1668H11.3334C11.8638 15.1668 12.3725 14.9561 12.7476 14.581C13.1227 14.2059 13.3334 13.6972 13.3334 13.1668V5.83344H14C14.1769 5.83344 14.3464 5.7632 14.4714 5.63818C14.5965 5.51315 14.6667 5.34358 14.6667 5.16677C14.6667 4.98996 14.5965 4.82039 14.4714 4.69537C14.3464 4.57034 14.1769 4.50011 14 4.50011ZM6.66671 3.38677C6.66671 3.28011 6.80671 3.16677 7.00004 3.16677H9.00004C9.19337 3.16677 9.33337 3.28011 9.33337 3.38677V4.50011H6.66671V3.38677ZM12 13.1668C12 13.3436 11.9298 13.5132 11.8048 13.6382C11.6798 13.7632 11.5102 13.8334 11.3334 13.8334H4.66671C4.4899 13.8334 4.32033 13.7632 4.1953 13.6382C4.07028 13.5132 4.00004 13.3436 4.00004 13.1668V5.83344H12V13.1668Z" fill="white"/>
</g>
</g>
</svg>
