<svg width="16" height="17" viewBox="0 0 16 17" fill="none" xmlns="http://www.w3.org/2000/svg">
<g id="Layer 2">
<g id="edit-2">
<path id="Vector" d="M12.6666 13.8333H3.33329C3.15648 13.8333 2.98691 13.9035 2.86189 14.0285C2.73686 14.1535 2.66663 14.3231 2.66663 14.4999C2.66663 14.6767 2.73686 14.8463 2.86189 14.9713C2.98691 15.0963 3.15648 15.1666 3.33329 15.1666H12.6666C12.8434 15.1666 13.013 15.0963 13.138 14.9713C13.2631 14.8463 13.3333 14.6767 13.3333 14.4999C13.3333 14.3231 13.2631 14.1535 13.138 14.0285C13.013 13.9035 12.8434 13.8333 12.6666 13.8333Z" fill="white"/>
<path id="Vector_2" d="M3.33329 12.5H3.39329L6.17329 12.2467C6.47782 12.2163 6.76264 12.0821 6.97995 11.8667L12.98 5.86665C13.2128 5.62063 13.3387 5.29233 13.3299 4.95368C13.3212 4.61503 13.1786 4.29366 12.9333 4.05999L11.1066 2.23332C10.8682 2.00938 10.5558 1.88089 10.2288 1.87229C9.90187 1.86368 9.58314 1.97557 9.33329 2.18665L3.33329 8.18665C3.1178 8.40396 2.98362 8.68879 2.95329 8.99332L2.66662 11.7733C2.65764 11.871 2.67031 11.9694 2.70373 12.0616C2.73715 12.1538 2.79049 12.2374 2.85995 12.3067C2.92225 12.3684 2.99612 12.4173 3.07735 12.4505C3.15857 12.4837 3.24555 12.5005 3.33329 12.5ZM10.18 3.16665L12 4.98665L10.6666 6.28665L8.87995 4.49999L10.18 3.16665ZM4.24662 9.10665L7.99995 5.37999L9.79995 7.17999L6.06662 10.9133L4.06662 11.1L4.24662 9.10665Z" fill="white"/>
</g>
</g>
</svg>
