<svg width="16" height="17" viewBox="0 0 16 17" fill="none" xmlns="http://www.w3.org/2000/svg">
<g id="Layer 2">
<g id="play-circle">
<path id="Vector" d="M8.00004 1.83325C6.6815 1.83325 5.39257 2.22425 4.29624 2.95679C3.19991 3.68933 2.34543 4.73052 1.84085 5.9487C1.33626 7.16687 1.20424 8.50731 1.46148 9.80052C1.71871 11.0937 2.35365 12.2816 3.286 13.214C4.21835 14.1463 5.40624 14.7813 6.69944 15.0385C7.99265 15.2957 9.33309 15.1637 10.5513 14.6591C11.7694 14.1545 12.8106 13.3 13.5432 12.2037C14.2757 11.1074 14.6667 9.81846 14.6667 8.49992C14.6667 7.62444 14.4943 6.75753 14.1592 5.9487C13.8242 5.13986 13.3331 4.40493 12.7141 3.78587C12.095 3.16682 11.3601 2.67575 10.5513 2.34072C9.74243 2.00569 8.87552 1.83325 8.00004 1.83325ZM8.00004 13.8333C6.94521 13.8333 5.91406 13.5205 5.037 12.9344C4.15994 12.3484 3.47635 11.5154 3.07269 10.5409C2.66902 9.56636 2.5634 8.494 2.76919 7.45944C2.97498 6.42487 3.48293 5.47456 4.22881 4.72868C4.97469 3.9828 5.925 3.47485 6.95956 3.26906C7.99413 3.06328 9.06648 3.16889 10.041 3.57256C11.0156 3.97623 11.8485 4.65982 12.4345 5.53688C13.0206 6.41394 13.3334 7.44509 13.3334 8.49992C13.3334 9.91441 12.7715 11.271 11.7713 12.2712C10.7711 13.2713 9.41453 13.8333 8.00004 13.8333Z" fill="white"/>
<path id="Vector_2" d="M8.22666 5.46667C8.06331 5.31613 7.85932 5.21692 7.64004 5.18136C7.42077 5.1458 7.19588 5.17547 6.99333 5.26667C6.7967 5.34621 6.62825 5.48257 6.5095 5.65832C6.39075 5.83407 6.32709 6.04123 6.32666 6.25334V10.7467C6.32709 10.9588 6.39075 11.1659 6.5095 11.3417C6.62825 11.5174 6.7967 11.6538 6.99333 11.7333C7.13784 11.7989 7.29464 11.833 7.45333 11.8333C7.73927 11.8321 8.01467 11.7252 8.22666 11.5333L10.6667 9.28667C10.7758 9.18674 10.8629 9.06519 10.9226 8.92976C10.9822 8.79433 11.013 8.64798 11.013 8.5C11.013 8.35203 10.9822 8.20568 10.9226 8.07025C10.8629 7.93482 10.7758 7.81327 10.6667 7.71334L8.22666 5.46667ZM7.66666 10.2333V6.76667L9.53999 8.5L7.66666 10.2333Z" fill="white"/>
</g>
</g>
</svg>
